# 3ds Max Wavefront OBJ Exporter v0.97b - (c)2007 guruware
# File Created: 23.04.2018 14:38:16

mtllib mountains.mtl

#
# object GeoSphere001
#

v  -1187.5651855469 454.2834472656 -850.5617065430
v  -608.7497558594 363.0744934082 -1267.0441894531
v  -1546.1242675781 363.0744934082 -738.4251708984
v  -256.8804931641 125.2093429565 -1520.2291259766
v  -871.6852416992 231.9514160156 -1287.0385742188
v  -1764.0969238281 125.2093429565 -670.2559814453
v  -269.9207153320 -166.0480651855 -1510.8461914063
v  -615.4396972656 -266.0722656250 -1408.0925292969
v  -1185.2816162109 -266.0722656250 -1086.7384033203
v  -1756.0190429688 -166.0480651855 -672.7822875977
v  -1407.8214111328 363.0744934082 -546.2158203125
v  -2017.6718750000 231.9514312744 -253.2644042969
v  -1541.7180175781 125.2093429565 -361.2000427246
v  -1984.3531494141 -266.0722656250 -365.9100646973
v  -1900.2770996094 -266.0722656250 -249.0635375977
v  -1536.7558593750 -166.0480651855 -368.0567016602
v  -673.3385009766 231.9514160156 -1011.3820190430
v  -962.9026489258 -266.0722656250 -777.6824951172
v  -477.1368408203 -266.0722656250 -1215.8831787109
v  -985.1448974609 -466.0411071777 -996.2117919922
# 20 vertices

vn -0.0000000200 1.0000000000 0.0000000144
vn 0.4654020965 0.8193036318 -0.3348767459
vn -0.5227128267 0.8193035722 -0.2356117219
vn 0.7848803401 0.2549796999 -0.5647549629
vn -0.0890085697 0.4550259411 -0.8860185146
vn -0.8815323710 0.2549796402 -0.3973488808
vn 0.7652876973 -0.3333334029 -0.5506572723
vn 0.2404550314 -0.4931980968 -0.8360245228
vn -0.4059737027 -0.5259163976 -0.7473936677
vn -0.8595271111 -0.3333334327 -0.3874300122
vn 0.0573107451 0.8193035722 0.5704884529
vn -0.7228102684 0.4550259113 0.5200929046
vn 0.0966521204 0.2549796104 0.9621038437
vn -0.8102573156 -0.5493704677 0.2041447163
vn -0.4510219991 -0.5493704677 0.7033997774
vn 0.0942393839 -0.3333334327 0.9380872846
vn 0.8118188381 0.4550259411 0.3659256399
vn 0.5796633959 -0.5259163380 0.6224166155
vn 0.8691018820 -0.4931981266 0.0376508534
vn 0.1072891280 -0.9912261963 -0.0771991238
# 20 vertex normals

vt 0.8578383923 0.3589019477 0.0000000000
vt 0.7973188758 0.2852892876 0.0000009537
vt 0.9183578491 0.2852892876 0.0000009537
vt 0.7973188758 0.2116766274 0.0000000000
vt 0.8578383923 0.2408379614 -0.0000009537
vt 0.9183578491 0.2116766274 0.0000009537
vt 0.7973188758 0.1380639821 0.0000000000
vt 0.8356618285 0.1102635413 0.0000000000
vt 0.8800149560 0.1102635413 0.0000000000
vt 0.9183578491 0.1380639821 0.0000000000
vt 0.6157605648 0.3589019477 0.0000000000
vt 0.5552411079 0.2852892876 0.0000009537
vt 0.6762800217 0.2852892876 0.0000009537
vt 0.9788773060 0.2408379912 0.0000000000
vt 0.6157605648 0.2408379912 0.0000000000
vt 0.6762800217 0.2116766274 0.0000009537
vt 0.9567006826 0.1102635413 -0.0000009537
vt 0.5935840011 0.1102635413 -0.0000009537
vt 0.6379371285 0.1102635413 -0.0000009537
vt 0.6762800217 0.1380639821 0.0000000000
vt 0.7367994785 0.3589019477 0.0000000000
vt 0.7367994785 0.2408379614 -0.0000009537
vt 0.7146229148 0.1102635413 0.0000000000
vt 0.7589760423 0.1102635413 0.0000000000
vt 0.7973188758 0.0199999996 0.0000000000
# 25 texture coords

o GeoSphere001
g GeoSphere001
usemtl 01___Default
s off
f 1/1/1 2/2/2 3/3/3 
f 2/2/2 4/4/4 5/5/5 
f 2/2/2 5/5/5 3/3/3 
f 3/3/3 5/5/5 6/6/6 
f 4/4/4 7/7/7 8/8/8 
f 4/4/4 8/8/8 5/5/5 
f 5/5/5 8/8/8 9/9/9 
f 5/5/5 9/9/9 6/6/6 
f 6/6/6 9/9/9 10/10/10 
f 1/11/1 3/12/3 11/13/11 
f 3/3/3 6/6/6 12/14/12 
f 3/12/3 12/15/12 11/13/11 
f 11/13/11 12/15/12 13/16/13 
f 6/6/6 10/10/10 14/17/14 
f 6/6/6 14/17/14 12/14/12 
f 12/15/12 14/18/14 15/19/15 
f 12/15/12 15/19/15 13/16/13 
f 13/16/13 15/19/15 16/20/16 
f 1/21/1 11/13/11 2/2/2 
f 11/13/11 13/16/13 17/22/17 
f 11/13/11 17/22/17 2/2/2 
f 2/2/2 17/22/17 4/4/4 
f 13/16/13 16/20/16 18/23/18 
f 13/16/13 18/23/18 17/22/17 
f 17/22/17 18/23/18 19/24/19 
f 17/22/17 19/24/19 4/4/4 
f 4/4/4 19/24/19 7/7/7 
f 7/7/7 19/24/19 8/8/8 
f 19/24/19 18/23/18 20/25/20 
f 19/24/19 20/25/20 8/8/8 
f 8/8/8 20/25/20 9/9/9 
f 18/23/18 16/20/16 15/19/15 
f 18/23/18 15/19/15 20/25/20 
f 20/25/20 15/19/15 14/18/14 
f 20/25/20 14/17/14 9/9/9 
f 9/9/9 14/17/14 10/10/10 
# 0 polygons - 36 triangles

#
# object GeoSphere002
#

v  -7.1154785156 418.7725830078 1680.3671875000
v  1450.6950683594 337.0634460449 1680.3671875000
v  -736.0207519531 337.0634460449 1237.1097412109
v  2336.9167480469 123.9730300903 1680.3671875000
v  1038.2421875000 219.5974426270 1044.6706542969
v  -1179.1315917969 123.9730300903 967.6479492188
v  2304.0734863281 -136.9485931396 1680.3671875000
v  1608.0112304688 -226.5548248291 1237.1098632813
v  278.6789855957 -226.5548248291 967.6480712891
v  -1162.7099609375 -136.9485931396 977.6341552734
v  -736.0207519531 337.0634460449 2123.6245117188
v  -2097.8310546875 219.5974731445 1680.3671875000
v  -1179.1315917969 123.9730300903 2393.0864257813
v  -1908.0366210938 -226.5548248291 1410.9053955078
v  -1908.0366210938 -226.5548248291 1949.8289794922
v  -1162.7099609375 -136.9485931396 2383.1000976563
v  1038.2421875000 219.5974426270 2316.0637207031
v  278.6789855957 -226.5548248291 2393.0864257813
v  1608.0112304688 -226.5548248291 2123.6245117188
v  502.7024841309 -405.6960449219 1680.3671875000
# 20 vertices

vn -0.0000000246 1.0000000000 -0.0000000000
vn 0.5733599067 0.8193036318 -0.0000000120
vn -0.2866799533 0.8193035722 -0.4965442717
vn 0.9669464231 0.2549796999 -0.0000000189
vn 0.4452390969 0.4550259411 -0.7711766958
vn -0.4834731817 0.2549796402 -0.8374001980
vn 0.9428089857 -0.3333334029 -0.0000000000
vn 0.6834685802 -0.4931980968 -0.5381694436
vn 0.1069899499 -0.5259163976 -0.8437802196
vn -0.4714044929 -0.3333334327 -0.8164965510
vn -0.2866799533 0.8193035722 0.4965442717
vn -0.8904781938 0.4550259113 -0.0000000000
vn -0.4834731519 0.2549796104 0.8374001980
vn -0.7769270539 -0.5493704677 -0.3075327575
vn -0.7769271135 -0.5493704677 0.3075327575
vn -0.4714044929 -0.3333334327 0.8164965510
vn 0.4452390969 0.4550259411 0.7711767554
vn 0.1069899425 -0.5259163380 0.8437802792
vn 0.6834685802 -0.4931981266 0.5381694436
vn 0.1321766376 -0.9912261963 -0.0000000000
# 20 vertex normals

vt 0.6136187315 0.9799999595 0.0000000000
vt 0.4985547960 0.8400422931 0.0000018132
vt 0.7286827564 0.8400422931 0.0000018132
vt 0.4985547960 0.7000845075 0.0000000000
vt 0.6136187315 0.7555281520 -0.0000018132
vt 0.7286827564 0.7000845075 0.0000018132
vt 0.4985547960 0.5601267815 0.0000000000
vt 0.5714550614 0.5072706342 0.0000000000
vt 0.6557824612 0.5072706342 0.0000000000
vt 0.7286827564 0.5601267815 0.0000000000
vt 0.1533627808 0.9799999595 0.0000000000
vt 0.0382988378 0.8400422931 0.0000018132
vt 0.2684268057 0.8400422931 0.0000018132
vt 0.8437466621 0.7555281520 0.0000000000
vt 0.1533627808 0.7555281520 0.0000000000
vt 0.2684268057 0.7000845075 0.0000018132
vt 0.8015830517 0.5072706342 -0.0000018132
vt 0.1111990809 0.5072706342 -0.0000018132
vt 0.1955265105 0.5072706342 -0.0000018132
vt 0.2684268057 0.5601267815 0.0000000000
vt 0.3834907413 0.9799999595 0.0000000000
vt 0.3834907413 0.7555281520 -0.0000018132
vt 0.3413270712 0.5072706342 0.0000000000
vt 0.4256544709 0.5072706342 0.0000000000
vt 0.4985547960 0.3356550336 0.0000000000
# 25 texture coords

o GeoSphere002
g GeoSphere002
usemtl 01___Default
s off
f 21/26/21 22/27/22 23/28/23 
f 22/27/22 24/29/24 25/30/25 
f 22/27/22 25/30/25 23/28/23 
f 23/28/23 25/30/25 26/31/26 
f 24/29/24 27/32/27 28/33/28 
f 24/29/24 28/33/28 25/30/25 
f 25/30/25 28/33/28 29/34/29 
f 25/30/25 29/34/29 26/31/26 
f 26/31/26 29/34/29 30/35/30 
f 21/36/21 23/37/23 31/38/31 
f 23/28/23 26/31/26 32/39/32 
f 23/37/23 32/40/32 31/38/31 
f 31/38/31 32/40/32 33/41/33 
f 26/31/26 30/35/30 34/42/34 
f 26/31/26 34/42/34 32/39/32 
f 32/40/32 34/43/34 35/44/35 
f 32/40/32 35/44/35 33/41/33 
f 33/41/33 35/44/35 36/45/36 
f 21/46/21 31/38/31 22/27/22 
f 31/38/31 33/41/33 37/47/37 
f 31/38/31 37/47/37 22/27/22 
f 22/27/22 37/47/37 24/29/24 
f 33/41/33 36/45/36 38/48/38 
f 33/41/33 38/48/38 37/47/37 
f 37/47/37 38/48/38 39/49/39 
f 37/47/37 39/49/39 24/29/24 
f 24/29/24 39/49/39 27/32/27 
f 27/32/27 39/49/39 28/33/28 
f 39/49/39 38/48/38 40/50/40 
f 39/49/39 40/50/40 28/33/28 
f 28/33/28 40/50/40 29/34/29 
f 38/48/38 36/45/36 35/44/35 
f 38/48/38 35/44/35 40/50/40 
f 40/50/40 35/44/35 34/43/34 
f 40/50/40 34/42/34 29/34/29 
f 29/34/29 34/42/34 30/35/30 
# 0 polygons - 36 triangles

#
# object GeoSphere003
#

v  1354.9744873047 536.5952758789 -1045.5444335938
v  1588.9246826172 431.5324401855 -1045.5444335938
v  1237.9993896484 431.5324401855 -1411.1940917969
v  1731.1459960938 157.5376434326 -1045.5444335938
v  1522.7340087891 280.4928894043 -1569.9399414063
v  1166.8886718750 157.5376434326 -1633.4772949219
v  1725.8752441406 -177.9592742920 -1045.5444335938
v  1614.1708984375 -293.1763000488 -1411.1940917969
v  1400.8389892578 -293.1763000488 -1633.4770507813
v  1169.5240478516 -177.9592742920 -1625.2395019531
v  1237.9993896484 431.5324401855 -679.8947753906
v  1019.4553222656 280.4929199219 -1045.5444335938
v  1166.8886718750 157.5376434326 -457.6116333008
v  1049.9136962891 -293.1763000488 -1267.8275146484
v  1049.9136962891 -293.1763000488 -823.2613525391
v  1169.5240478516 -177.9592742920 -465.8494262695
v  1522.7340087891 280.4928894043 -521.1488647461
v  1400.8389892578 -293.1763000488 -457.6117553711
v  1614.1708984375 -293.1763000488 -679.8947753906
v  1436.7902832031 -523.5186767578 -1045.5444335938
# 20 vertices

vn -0.0000000246 0.9999999404 -0.0000000000
vn 0.5733599067 0.8193035722 -0.0000000120
vn -0.2866799533 0.8193035126 -0.4965442717
vn 0.9669464231 0.2549796700 -0.0000000189
vn 0.4452390969 0.4550259113 -0.7711766958
vn -0.4834731817 0.2549796104 -0.8374001980
vn 0.9428089857 -0.3333333731 -0.0000000000
vn 0.6834685802 -0.4931980669 -0.5381694436
vn 0.1069899499 -0.5259163380 -0.8437802196
vn -0.4714044929 -0.3333334029 -0.8164965510
vn -0.2866799533 0.8193035126 0.4965442717
vn -0.8904781938 0.4550258815 -0.0000000000
vn -0.4834731519 0.2549795806 0.8374001980
vn -0.7769270539 -0.5493704081 -0.3075327575
vn -0.7769271135 -0.5493704081 0.3075327575
vn -0.4714044929 -0.3333334029 0.8164965510
vn 0.4452390969 0.4550259113 0.7711767554
vn 0.1069899425 -0.5259162784 0.8437802792
vn 0.6834685802 -0.4931980968 0.5381694436
vn 0.1321766376 -0.9912261367 -0.0000000000
# 20 vertex normals

vt 0.2989154756 0.3506776989 0.0000000000
vt 0.2431323379 0.2828260958 0.0000008790
vt 0.3546985388 0.2828260958 0.0000008790
vt 0.2431323379 0.2149744928 0.0000000000
vt 0.2989154756 0.2418536097 -0.0000008790
vt 0.3546985388 0.2149744928 0.0000008790
vt 0.2431323379 0.1471229047 0.0000000000
vt 0.2784744501 0.1214981973 0.0000000000
vt 0.3193564415 0.1214981973 0.0000000000
vt 0.3546985388 0.1471229047 0.0000000000
vt 0.0757830739 0.3506776989 0.0000000000
vt 0.0199999996 0.2828260958 0.0000008790
vt 0.1315661669 0.2828260958 0.0000008790
vt 0.4104816318 0.2418536544 0.0000000000
vt 0.0757830739 0.2418536544 0.0000000000
vt 0.1315661669 0.2149744928 0.0000008790
vt 0.3900406361 0.1214981973 -0.0000008790
vt 0.0553420857 0.1214981973 -0.0000008790
vt 0.0962240696 0.1214981973 -0.0000008790
vt 0.1315661669 0.1471229047 0.0000000000
vt 0.1873492450 0.3506776989 0.0000000000
vt 0.1873492450 0.2418536097 -0.0000008790
vt 0.1669082642 0.1214981973 0.0000000000
vt 0.2077902406 0.1214981973 0.0000000000
vt 0.2431323379 0.0382988378 0.0000000000
# 25 texture coords

o GeoSphere003
g GeoSphere003
usemtl 01___Default
s off
f 41/51/41 42/52/42 43/53/43 
f 42/52/42 44/54/44 45/55/45 
f 42/52/42 45/55/45 43/53/43 
f 43/53/43 45/55/45 46/56/46 
f 44/54/44 47/57/47 48/58/48 
f 44/54/44 48/58/48 45/55/45 
f 45/55/45 48/58/48 49/59/49 
f 45/55/45 49/59/49 46/56/46 
f 46/56/46 49/59/49 50/60/50 
f 41/61/41 43/62/43 51/63/51 
f 43/53/43 46/56/46 52/64/52 
f 43/62/43 52/65/52 51/63/51 
f 51/63/51 52/65/52 53/66/53 
f 46/56/46 50/60/50 54/67/54 
f 46/56/46 54/67/54 52/64/52 
f 52/65/52 54/68/54 55/69/55 
f 52/65/52 55/69/55 53/66/53 
f 53/66/53 55/69/55 56/70/56 
f 41/71/41 51/63/51 42/52/42 
f 51/63/51 53/66/53 57/72/57 
f 51/63/51 57/72/57 42/52/42 
f 42/52/42 57/72/57 44/54/44 
f 53/66/53 56/70/56 58/73/58 
f 53/66/53 58/73/58 57/72/57 
f 57/72/57 58/73/58 59/74/59 
f 57/72/57 59/74/59 44/54/44 
f 44/54/44 59/74/59 47/57/47 
f 47/57/47 59/74/59 48/58/48 
f 59/74/59 58/73/58 60/75/60 
f 59/74/59 60/75/60 48/58/48 
f 48/58/48 60/75/60 49/59/49 
f 58/73/58 56/70/56 55/69/55 
f 58/73/58 55/69/55 60/75/60 
f 60/75/60 55/69/55 54/68/54 
f 60/75/60 54/67/54 49/59/49 
f 49/59/49 54/67/54 50/60/50 
# 0 polygons - 36 triangles

